<svg width="20" height="20" viewBox="0 0 20 20" fill="none" xmlns="http://www.w3.org/2000/svg">
<path d="M10 20C4.47059 20 0 15.5294 0 10C0 4.47059 4.47059 0 10 0C15.5294 0 20 4.47059 20 10C20 15.5294 15.5294 20 10 20ZM10 1.17647C5.11765 1.17647 1.17647 5.11765 1.17647 10C1.17647 14.8824 5.11765 18.8235 10 18.8235C14.8824 18.8235 18.8235 14.8824 18.8235 10C18.8235 5.11765 14.8824 1.17647 10 1.17647Z" fill="#FFC300"/>
<path d="M14.8832 11.0001L10.0008 6.11776L5.11845 11.0001L4.29492 10.1766L10.0008 4.4707L15.7067 10.1766L14.8832 11.0001Z" fill="#FFC300"/>
<path d="M9.41211 5.29395H10.5886V15.2939H9.41211V5.29395Z" fill="#FFC300"/>
</svg>
