<svg width="21" height="23" viewBox="0 0 21 23" fill="none" xmlns="http://www.w3.org/2000/svg">
<path d="M1 1.96249C1 1.79477 1.06663 1.63391 1.18523 1.51531C1.30383 1.39671 1.46469 1.33008 1.63242 1.33008H19.3401C19.5078 1.33008 19.6686 1.39671 19.7872 1.51531C19.9058 1.63391 19.9725 1.79477 19.9725 1.96249V16.5081C19.9725 16.5911 19.9561 16.6733 19.9243 16.7501C19.8925 16.8268 19.846 16.8965 19.7872 16.9552C19.7285 17.014 19.6588 17.0605 19.5821 17.0923C19.5053 17.1241 19.4231 17.1405 19.3401 17.1405H14.9764C14.8899 17.1403 14.8043 17.158 14.7249 17.1922C14.6455 17.2265 14.574 17.2767 14.5147 17.3397L10.9468 21.131C10.8877 21.1939 10.8163 21.2439 10.7371 21.2782C10.6579 21.3124 10.5725 21.3301 10.4862 21.3301C10.3999 21.3301 10.3146 21.3124 10.2353 21.2782C10.1561 21.2439 10.0848 21.1939 10.0256 21.131L6.45775 17.3397C6.39851 17.2767 6.32697 17.2265 6.24756 17.1922C6.16816 17.158 6.08257 17.1403 5.99608 17.1405H1.63242C1.46469 17.1405 1.30383 17.0738 1.18523 16.9552C1.06663 16.8366 1 16.6758 1 16.5081V1.96249Z" stroke="white" stroke-width="1.5"/>
<path d="M10.4856 5.5459L11.9876 8.26001L14.7017 9.762L11.9876 11.264L10.4856 13.9781L8.98365 11.264L6.26953 9.762L8.98365 8.26001L10.4856 5.5459Z" stroke="white" stroke-width="1.5" stroke-linecap="round" stroke-linejoin="round"/>
</svg>
