<svg width="28" height="23" viewBox="0 0 28 23" fill="none" xmlns="http://www.w3.org/2000/svg">
<path d="M7.78571 7.99674H13.2143V6.66341H7.78571V7.99674ZM20 14.6634V19.6634C20 20.1217 19.8339 20.5141 19.5017 20.8405C19.1695 21.1669 18.7701 21.3301 18.3036 21.3301H2.69643C2.22991 21.3301 1.83054 21.1669 1.49833 20.8405C1.16611 20.5141 1 20.1217 1 19.6634V14.6634H8.125V16.3301C8.125 16.5106 8.19215 16.6669 8.32645 16.7988C8.46075 16.9308 8.61979 16.9967 8.80357 16.9967H12.1964C12.3802 16.9967 12.5392 16.9308 12.6735 16.7988C12.8078 16.6669 12.875 16.5106 12.875 16.3301V14.6634H20ZM11.8571 14.6634V15.9967H9.14286V14.6634H11.8571ZM20 9.66341V13.6634H1V9.66341C1 9.20508 1.16611 8.81272 1.49833 8.48633C1.83054 8.15994 2.22991 7.99674 2.69643 7.99674H6.42857V6.33008C6.42857 6.0523 6.52753 5.81619 6.72545 5.62174C6.92336 5.4273 7.16369 5.33008 7.44643 5.33008H13.5536C13.8363 5.33008 14.0766 5.4273 14.2746 5.62174C14.4725 5.81619 14.5714 6.0523 14.5714 6.33008V7.99674H18.3036C18.7701 7.99674 19.1695 8.15994 19.5017 8.48633C19.8339 8.81272 20 9.20508 20 9.66341Z" stroke="white" stroke-width="1.5"/>
<path d="M22.5 9.33008C22.4129 9.33008 22.3393 9.29883 22.279 9.23633L19.1451 6.10091C19.1116 6.07313 19.0656 6.028 19.007 5.9655C18.9484 5.903 18.8555 5.78928 18.7282 5.62435C18.601 5.45942 18.4872 5.29015 18.3867 5.11654C18.2863 4.94293 18.1967 4.73286 18.118 4.48633C18.0393 4.2398 18 4.00022 18 3.76758C18 3.00369 18.2126 2.40647 18.6378 1.97591C19.0631 1.54536 19.6507 1.33008 20.4007 1.33008C20.6083 1.33008 20.82 1.3674 21.036 1.44206C21.252 1.51671 21.4528 1.6174 21.6387 1.74414C21.8245 1.87088 21.9844 1.9898 22.1183 2.10091C22.2522 2.21202 22.3795 2.33008 22.5 2.45508C22.6205 2.33008 22.7478 2.21202 22.8817 2.10091C23.0156 1.9898 23.1755 1.87088 23.3613 1.74414C23.5472 1.6174 23.748 1.51671 23.964 1.44206C24.18 1.3674 24.3917 1.33008 24.5993 1.33008C25.3493 1.33008 25.9369 1.54536 26.3622 1.97591C26.7874 2.40647 27 3.00369 27 3.76758C27 4.53494 26.6166 5.31619 25.8499 6.11133L22.721 9.23633C22.6607 9.29883 22.5871 9.33008 22.5 9.33008Z" stroke="white" stroke-width="1.25"/>
</svg>
