<svg width="29" height="25" viewBox="0 0 29 25" fill="none" xmlns="http://www.w3.org/2000/svg">
<path d="M22.2906 18.7537L21.8515 17.8552L22.2906 18.7537ZM22.8845 17.8926H21.8845H22.8845ZM13.2501 21.9033L12.7845 22.7884L13.2501 21.9033ZM15.7753 21.9376L16.2143 22.8361L15.7753 21.9376ZM2.30074 8.63662L1.85841 7.73976L2.30074 8.63662ZM2.30074 9.49565L1.85842 10.3925L2.30074 9.49565ZM15.1185 15.2071L15.5609 16.104L15.1185 15.2071ZM13.8814 15.2071L14.3237 14.3103L13.8814 15.2071ZM26.6992 8.63662L27.1415 7.73976L26.6992 8.63662ZM26.6992 9.49565L26.2569 8.59879L26.6992 9.49565ZM7.2712 18.7581L7.73677 17.8731L7.2712 18.7581ZM15.1185 2.92515L14.6762 3.82201L15.1185 2.92515ZM13.8814 2.92515L14.3237 3.82201V3.82201L13.8814 2.92515ZM27.825 9.04949C27.825 8.4972 27.3772 8.04949 26.825 8.04949C26.2727 8.04949 25.825 8.4972 25.825 9.04949H27.825ZM25.825 14.4495C25.825 15.0018 26.2727 15.4495 26.825 15.4495C27.3772 15.4495 27.825 15.0018 27.825 14.4495H25.825ZM14.6762 3.82201L26.2569 9.53348L27.1415 7.73976L15.5609 2.0283L14.6762 3.82201ZM26.2569 8.59879L14.6762 14.3103L15.5609 16.104L27.1415 10.3925L26.2569 8.59879ZM2.74306 9.53348L14.3237 3.82201L13.4391 2.02829L1.85841 7.73976L2.74306 9.53348ZM14.3237 14.3103L7.1534 10.7739L6.26876 12.5676L13.4391 16.104L14.3237 14.3103ZM7.1534 10.7739L2.74306 8.59879L1.85842 10.3925L6.26875 12.5676L7.1534 10.7739ZM5.71108 11.6708V17.9142H7.71108V11.6708H5.71108ZM6.80563 19.6431L12.7845 22.7884L13.7156 21.0183L7.73677 17.8731L6.80563 19.6431ZM16.2143 22.8361L22.7296 19.6521L21.8515 17.8552L15.3362 21.0392L16.2143 22.8361ZM23.8845 17.8926L23.8845 11.6708H21.8845L21.8845 17.8926H23.8845ZM22.7296 19.6521C23.3741 19.3372 23.8845 18.6976 23.8845 17.8926H21.8845C21.8845 17.8739 21.8876 17.8569 21.892 17.8434C21.8963 17.8301 21.9009 17.8227 21.9024 17.8206C21.9052 17.8166 21.894 17.8345 21.8515 17.8552L22.7296 19.6521ZM12.7845 22.7884C13.8353 23.3412 15.147 23.3577 16.2143 22.8361L15.3362 21.0392C14.8384 21.2825 14.1988 21.2725 13.7156 21.0183L12.7845 22.7884ZM1.85841 7.73976C1.3592 7.98597 1.00586 8.47764 1.00586 9.06614C1.00586 9.65463 1.35921 10.1463 1.85842 10.3925L2.74306 8.59879C2.8491 8.65109 3.00586 8.8102 3.00586 9.06613C3.00586 9.32206 2.8491 9.48118 2.74306 9.53348L1.85841 7.73976ZM14.6762 14.3103C14.574 14.3607 14.426 14.3607 14.3237 14.3103L13.4391 16.104C14.099 16.4295 14.9009 16.4295 15.5609 16.104L14.6762 14.3103ZM26.2569 9.53348C26.1508 9.48118 25.9941 9.32207 25.9941 9.06613C25.9941 8.8102 26.1508 8.65109 26.2569 8.59879L27.1415 10.3925C27.6407 10.1463 27.9941 9.65463 27.9941 9.06613C27.9941 8.47764 27.6407 7.98597 27.1415 7.73976L26.2569 9.53348ZM5.71108 17.9142C5.71108 18.6917 6.18905 19.3188 6.80563 19.6431L7.73677 17.8731C7.69879 17.8531 7.68996 17.8373 7.69351 17.8426C7.69535 17.8454 7.69991 17.8531 7.70401 17.8662C7.70819 17.8796 7.71108 17.8961 7.71108 17.9142H5.71108ZM15.5609 2.0283C14.9009 1.70281 14.099 1.70281 13.4391 2.02829L14.3237 3.82201C14.426 3.77157 14.5739 3.77157 14.6762 3.82201L15.5609 2.0283ZM25.825 9.04949V14.4495H27.825V9.04949H25.825Z" fill="#FFC300"/>
</svg>
