<svg width="23" height="20" viewBox="0 0 23 20" fill="none" xmlns="http://www.w3.org/2000/svg">
<path d="M19.3563 11.2035L11.5001 18.8538L3.62461 11.1715L3.59136 11.1391L3.55524 11.1098C3.51972 11.0811 3.43696 11.0053 3.29422 10.8568C3.18147 10.7396 2.97056 10.4905 2.64527 10.0794C2.34666 9.702 2.08127 9.31692 1.84827 8.92427C1.6377 8.56943 1.4364 8.11656 1.25199 7.55322C1.08005 7.02795 1 6.53603 1 6.07344C1 4.3677 1.48074 3.16179 2.33257 2.32084C3.18721 1.47712 4.41072 1 6.13505 1C6.54686 1 6.98026 1.07194 7.43927 1.22664C7.91014 1.38534 8.34452 1.59803 8.74511 1.86441C9.2012 2.1677 9.58342 2.44558 9.89565 2.69815C10.2093 2.95188 10.5071 3.22125 10.789 3.50631L11.5 4.22522L12.211 3.50631C12.4929 3.22125 12.7907 2.95188 13.1043 2.69815C13.4166 2.44558 13.7988 2.1677 14.2549 1.86441C14.6555 1.59803 15.0899 1.38534 15.5607 1.22664C16.0197 1.07194 16.4531 1 16.865 1C18.5893 1 19.8128 1.47712 20.6674 2.32084C21.5193 3.16179 22 4.3677 22 6.07344C22 7.62061 21.2105 9.32666 19.3563 11.2035Z" stroke="white" stroke-width="2"/>
</svg>
