<svg width="23" height="22" viewBox="0 0 23 22" fill="none" xmlns="http://www.w3.org/2000/svg">
<path d="M13.0912 0.934131C7.32274 0.775472 2.59696 5.4106 2.59696 11.1337H0.56838C0.0584031 11.1337 -0.190919 11.7456 0.171731 12.097L3.33359 15.2702C3.56025 15.4968 3.91156 15.4968 4.13822 15.2702L7.30008 12.097C7.6514 11.7456 7.40207 11.1337 6.8921 11.1337H4.86352C4.86352 6.71387 8.46736 3.14403 12.9098 3.2007C17.1256 3.25736 20.6728 6.80454 20.7295 11.0203C20.7861 15.4515 17.2163 19.0667 12.7965 19.0667C10.9719 19.0667 9.28332 18.4433 7.94605 17.3894C7.49274 17.0381 6.8581 17.0721 6.45012 17.4801C5.97414 17.956 6.00814 18.7607 6.54078 19.1686C8.26337 20.5286 10.4279 21.3332 12.7965 21.3332C18.5196 21.3332 23.1547 16.6074 22.996 10.839C22.8487 5.52393 18.4062 1.08146 13.0912 0.934131ZM12.5132 6.60054C12.0485 6.60054 11.6632 6.98586 11.6632 7.45051V11.621C11.6632 12.0176 11.8785 12.3916 12.2185 12.5956L15.7544 14.6922C16.1623 14.9302 16.6837 14.7942 16.9216 14.3975C17.1596 13.9895 17.0236 13.4682 16.627 13.2302L13.3631 11.2923V7.43917C13.3631 6.98586 12.9778 6.60054 12.5132 6.60054Z" fill="white"/>
</svg>
