<svg width="7" height="15" viewBox="0 0 7 15" fill="none" xmlns="http://www.w3.org/2000/svg">
<path d="M3.59775 2.56495L3.59795 2.56496V2.55084C3.59795 2.09002 4.00188 1.41992 4.83677 1.41992C5.15747 1.41992 5.34921 1.52519 5.46316 1.64717C5.583 1.77546 5.65913 1.96818 5.65913 2.20742C5.65913 2.7745 5.13279 3.36005 4.39663 3.36005C4.07667 3.36005 3.8875 3.26722 3.78082 3.15951C3.67532 3.053 3.58914 2.87014 3.59775 2.56495ZM1.88937 11.8842L1.88945 11.8842L1.89155 11.8754L2.68911 8.53009C2.75509 8.27526 2.81201 8.03256 2.81648 7.84516C2.81859 7.75651 2.81361 7.58725 2.71168 7.42944C2.57955 7.22488 2.37003 7.15874 2.20387 7.15874C2.08883 7.15874 1.95814 7.19126 1.85144 7.22376C2.24218 6.97422 2.62675 6.76004 2.98757 6.58451C3.77567 6.20112 4.38573 6.03374 4.68479 6.03374C4.72143 6.03374 4.73974 6.03919 4.74589 6.04146C4.75087 6.04329 4.75223 6.04447 4.75405 6.04621C4.759 6.05094 4.7933 6.08808 4.81704 6.20943C4.8671 6.46529 4.83375 6.90626 4.66587 7.52849L4.66585 7.52849L4.66469 7.53296L3.7496 11.0538C3.66549 11.3769 3.62037 11.6645 3.65102 11.8965C3.66681 12.016 3.70931 12.1736 3.82911 12.307C3.96368 12.4567 4.14131 12.516 4.30321 12.516C4.43337 12.516 4.57412 12.4809 4.69059 12.4445C4.6932 12.4436 4.69582 12.4428 4.69845 12.442C4.3201 12.7123 3.95254 12.9294 3.61352 13.0987C2.90181 13.4541 2.35988 13.5778 2.12427 13.5778C1.99683 13.5778 1.91971 13.5574 1.87521 13.535C1.8417 13.518 1.8084 13.4919 1.77756 13.423C1.69804 13.2452 1.65037 12.8117 1.88937 11.8842Z" fill="white" stroke="white"/>
</svg>
