<svg width="20" height="20" viewBox="0 0 20 20" fill="none" xmlns="http://www.w3.org/2000/svg">
<path d="M18.3383 7.32013L4.33829 0.320128C3.78579 0.0451374 3.16191 -0.0527612 2.55173 0.03978C1.94155 0.132321 1.37475 0.410798 0.928626 0.837244C0.482498 1.26369 0.178747 1.81735 0.058787 2.42274C-0.061173 3.02813 0.00849563 3.65578 0.258294 4.22013L2.65829 9.59013C2.71275 9.71996 2.7408 9.85934 2.7408 10.0001C2.7408 10.1409 2.71275 10.2803 2.65829 10.4101L0.258294 15.7801C0.0549944 16.2368 -0.03095 16.7371 0.00827138 17.2355C0.0474928 17.7339 0.210636 18.2145 0.482876 18.6338C0.755116 19.0531 1.12782 19.3977 1.56712 19.6363C2.00641 19.875 2.49838 20 2.99829 20.0001C3.46653 19.9955 3.92778 19.8861 4.34829 19.6801L18.3483 12.6801C18.8449 12.4303 19.2623 12.0474 19.554 11.5742C19.8457 11.101 20.0001 10.556 20.0001 10.0001C20.0001 9.44424 19.8457 8.89928 19.554 8.42605C19.2623 7.95282 18.8449 7.56994 18.3483 7.32013H18.3383ZM17.4483 10.8901L3.44829 17.8901C3.26446 17.9784 3.05803 18.0084 2.85668 17.976C2.65534 17.9436 2.4687 17.8504 2.32181 17.709C2.17491 17.5675 2.07477 17.3845 2.03482 17.1846C1.99487 16.9846 2.01702 16.7772 2.09829 16.5901L4.48829 11.2201C4.51923 11.1484 4.54595 11.075 4.56829 11.0001H11.4583C11.7235 11.0001 11.9779 10.8948 12.1654 10.7072C12.3529 10.5197 12.4583 10.2653 12.4583 10.0001C12.4583 9.73491 12.3529 9.48056 12.1654 9.29302C11.9779 9.10549 11.7235 9.00013 11.4583 9.00013H4.56829C4.54595 8.9253 4.51923 8.85184 4.48829 8.78013L2.09829 3.41013C2.01702 3.22309 1.99487 3.01568 2.03482 2.8157C2.07477 2.61572 2.17491 2.43273 2.32181 2.29128C2.4687 2.14982 2.65534 2.05666 2.85668 2.02428C3.05803 1.9919 3.26446 2.02186 3.44829 2.11013L17.4483 9.11013C17.6121 9.19405 17.7496 9.32154 17.8456 9.47857C17.9415 9.63561 17.9923 9.81608 17.9923 10.0001C17.9923 10.1842 17.9415 10.3647 17.8456 10.5217C17.7496 10.6787 17.6121 10.8062 17.4483 10.8901Z" fill="#E8E8E8"/>
</svg>
