<svg width="27" height="22" viewBox="0 0 27 22" fill="none" xmlns="http://www.w3.org/2000/svg">
<path d="M25.3125 21.1299C25.3125 21.1299 27 21.1299 27 19.4424C27 17.7549 25.3125 12.6924 18.5625 12.6924C11.8125 12.6924 10.125 17.7549 10.125 19.4424C10.125 21.1299 11.8125 21.1299 11.8125 21.1299H25.3125ZM11.8502 19.4424C11.8444 19.4417 11.8362 19.4406 11.8263 19.439C11.8216 19.4382 11.817 19.4374 11.8125 19.4365C11.815 18.9909 12.0941 17.699 13.0937 16.5328C14.0288 15.4419 15.6645 14.3799 18.5625 14.3799C21.4605 14.3799 23.0962 15.4419 24.0313 16.5328C25.0309 17.699 25.31 18.9909 25.3125 19.4365C25.308 19.4374 25.3034 19.4382 25.2987 19.439C25.2888 19.4406 25.2806 19.4417 25.2748 19.4424H11.8502Z" fill="white"/>
<path d="M18.5625 9.31738C20.4265 9.31738 21.9375 7.80634 21.9375 5.94238C21.9375 4.07842 20.4265 2.56738 18.5625 2.56738C16.6985 2.56738 15.1875 4.07842 15.1875 5.94238C15.1875 7.80634 16.6985 9.31738 18.5625 9.31738ZM23.625 5.94238C23.625 8.73832 21.3584 11.0049 18.5625 11.0049C15.7666 11.0049 13.5 8.73832 13.5 5.94238C13.5 3.14644 15.7666 0.879883 18.5625 0.879883C21.3584 0.879883 23.625 3.14644 23.625 5.94238Z" fill="white"/>
<path d="M11.7044 13.1648C11.0837 12.9663 10.3942 12.822 9.62935 12.7482C9.25079 12.7116 8.85377 12.6924 8.4375 12.6924C1.6875 12.6924 0 17.7549 0 19.4424C0 20.5674 0.5625 21.1299 1.6875 21.1299H8.80261C8.56501 20.6505 8.4375 20.0822 8.4375 19.4424C8.4375 17.7375 9.0741 15.9965 10.2766 14.5422C10.6874 14.0453 11.1643 13.5819 11.7044 13.1648ZM8.30257 14.3807C7.29431 15.9216 6.75 17.6784 6.75 19.4424H1.6875C1.6875 19.0024 1.96466 17.7042 2.96875 16.5328C3.88916 15.459 5.48858 14.4131 8.30257 14.3807Z" fill="white"/>
<path d="M2.53125 6.78613C2.53125 3.99019 4.79781 1.72363 7.59375 1.72363C10.3897 1.72363 12.6562 3.99019 12.6562 6.78613C12.6562 9.58207 10.3897 11.8486 7.59375 11.8486C4.79781 11.8486 2.53125 9.58207 2.53125 6.78613ZM7.59375 3.41113C5.72979 3.41113 4.21875 4.92217 4.21875 6.78613C4.21875 8.65009 5.72979 10.1611 7.59375 10.1611C9.45771 10.1611 10.9688 8.65009 10.9688 6.78613C10.9688 4.92217 9.45771 3.41113 7.59375 3.41113Z" fill="white"/>
</svg>
