<svg width="18" height="20" viewBox="0 0 18 20" fill="none" xmlns="http://www.w3.org/2000/svg">
<path d="M6.60608 17.8943V15.1342C6.60606 14.4322 7.14157 13.8617 7.80506 13.857H10.2354C10.9021 13.857 11.4425 14.4288 11.4425 15.1342V17.9028C11.4424 18.4989 11.892 18.986 12.4552 19H14.0754C15.6906 19 17 17.6146 17 15.9056V8.05405C16.9914 7.38174 16.693 6.75041 16.1899 6.33973L10.6486 1.61677C9.67784 0.79441 8.29786 0.79441 7.32709 1.61677L1.81013 6.3483C1.30506 6.75732 1.00622 7.3897 1 8.06262V15.9056C1 17.6146 2.30937 19 3.92456 19H5.54481C6.12198 19 6.58987 18.5049 6.58987 17.8943" stroke="#080808" stroke-width="2" stroke-linecap="round" stroke-linejoin="round"/>
</svg>
